<svg width="1440" height="281" viewBox="0 0 1440 281" fill="none" xmlns="http://www.w3.org/2000/svg">
<path fill-rule="evenodd" clip-rule="evenodd" d="M0 13L60 44.9048C120 76.8095 240 140.619 360 140.619C480 140.619 600 76.8095 720 83.1905C840 89.5714 960 166.143 1080 166.143C1200 166.143 1320 89.5714 1380 51.2857L1440 13V281H1380C1320 281 1200 281 1080 281C960 281 840 281 720 281C600 281 480 281 360 281C240 281 120 281 60 281H0V13Z" fill="#0099FF"/>
<path fill-rule="evenodd" clip-rule="evenodd" d="M0 112.4L30 84.3C60 56.2 120 0 180 0C240 0 300 56.2 360 95.54C420 134.88 480 157.36 540 162.98C600 168.6 660 157.36 720 162.98C780 168.6 840 191.08 900 168.6C960 146.12 1020 78.68 1080 61.82C1140 44.96 1200 78.68 1260 112.4C1320 146.12 1380 179.84 1410 196.7L1440 213.56V281H1410C1380 281 1320 281 1260 281C1200 281 1140 281 1080 281C1020 281 960 281 900 281C840 281 780 281 720 281C660 281 600 281 540 281C480 281 420 281 360 281C300 281 240 281 180 281C120 281 60 281 30 281H0V112.4Z" fill="#0038FF"/>
</svg>
