<svg width="414" height="176" viewBox="0 0 414 176" fill="none" xmlns="http://www.w3.org/2000/svg">
<path fill-rule="evenodd" clip-rule="evenodd" d="M-220 0L-189.667 17.1429C-159.333 34.2857 -98.6667 68.5714 -38 68.5714C22.6667 68.5714 83.3333 34.2857 144 37.7143C204.667 41.1429 265.333 82.2857 326 82.2857C386.667 82.2857 447.333 41.1429 477.667 20.5714L508 0V144H477.667C447.333 144 386.667 144 326 144C265.333 144 204.667 144 144 144C83.3333 144 22.6667 144 -38 144C-98.6667 144 -159.333 144 -189.667 144H-220V0Z" fill="#0099FF"/>
<path fill-rule="evenodd" clip-rule="evenodd" d="M0 94.4L8.625 80.8C17.25 67.2 34.5 40 51.75 40C69 40 86.25 67.2 103.5 86.24C120.75 105.28 138 116.16 155.25 118.88C172.5 121.6 189.75 116.16 207 118.88C224.25 121.6 241.5 132.48 258.75 121.6C276 110.72 293.25 78.08 310.5 69.92C327.75 61.76 345 78.08 362.25 94.4C379.5 110.72 396.75 127.04 405.375 135.2L414 143.36V176H405.375C396.75 176 379.5 176 362.25 176C345 176 327.75 176 310.5 176C293.25 176 276 176 258.75 176C241.5 176 224.25 176 207 176C189.75 176 172.5 176 155.25 176C138 176 120.75 176 103.5 176C86.25 176 69 176 51.75 176C34.5 176 17.25 176 8.625 176H0V94.4Z" fill="#0038FF"/>
</svg>
