<svg width="245" height="51" viewBox="0 0 245 51" fill="none" xmlns="http://www.w3.org/2000/svg">
<rect width="245" height="51" fill="#5170FE"/>
<path d="M62.2 34.24C60.616 34.24 59.336 33.928 58.36 33.304C57.384 32.664 56.736 31.776 56.416 30.64C56.096 29.488 56.096 28.144 56.416 26.608C56.784 24.928 57.336 23.464 58.072 22.216C58.824 20.968 59.816 20.008 61.048 19.336C62.28 18.648 63.792 18.304 65.584 18.304C66.48 18.304 67.272 18.368 67.96 18.496C68.664 18.624 69.312 18.8 69.904 19.024L69.544 20.752C68.952 20.512 68.312 20.328 67.624 20.2C66.936 20.056 66.192 19.984 65.392 19.984C63.424 19.984 61.872 20.576 60.736 21.76C59.616 22.928 58.832 24.544 58.384 26.608C58.112 27.872 58.056 28.952 58.216 29.848C58.392 30.728 58.84 31.4 59.56 31.864C60.296 32.328 61.36 32.56 62.752 32.56C63.472 32.56 64.216 32.504 64.984 32.392C65.752 32.28 66.48 32.104 67.168 31.864L66.808 33.616C66.152 33.808 65.44 33.96 64.672 34.072C63.92 34.184 63.096 34.24 62.2 34.24ZM74.1929 34.24C72.5929 34.24 71.4329 33.8 70.7129 32.92C70.0089 32.04 69.8569 30.616 70.2569 28.648C70.5449 27.272 71.0169 26.12 71.6729 25.192C72.3289 24.264 73.1129 23.568 74.0249 23.104C74.9369 22.624 75.9049 22.384 76.9289 22.384C77.6649 22.384 78.2969 22.472 78.8249 22.648C79.3529 22.824 79.8489 23.096 80.3129 23.464L80.4809 22.624H82.4489L80.0489 34H78.3689L78.4649 32.8C77.8249 33.296 77.1609 33.664 76.4729 33.904C75.8009 34.128 75.0409 34.24 74.1929 34.24ZM75.0329 32.656C75.6889 32.656 76.3209 32.544 76.9289 32.32C77.5369 32.096 78.1129 31.752 78.6569 31.288L79.9529 25.096C79.6489 24.744 79.2729 24.472 78.8249 24.28C78.3769 24.072 77.8089 23.968 77.1209 23.968C75.7929 23.968 74.7209 24.36 73.9049 25.144C73.1049 25.928 72.5449 27.096 72.2249 28.648C71.9209 30.136 71.9609 31.176 72.3449 31.768C72.7449 32.36 73.6409 32.656 75.0329 32.656ZM87.8335 34.24C86.8255 34.24 85.9775 34.04 85.2895 33.64C84.6015 33.224 84.1375 32.584 83.8975 31.72C83.6575 30.84 83.6815 29.712 83.9695 28.336C84.4015 26.288 85.1775 24.784 86.2975 23.824C87.4175 22.864 88.7775 22.384 90.3775 22.384C91.8495 22.384 93.0415 22.744 93.9535 23.464L95.1535 17.824H97.1215L93.6895 34H92.0095L92.1055 32.8C91.4655 33.296 90.8015 33.664 90.1135 33.904C89.4415 34.128 88.6815 34.24 87.8335 34.24ZM88.6735 32.656C89.3295 32.656 89.9615 32.544 90.5695 32.32C91.1775 32.096 91.7535 31.752 92.2975 31.288L93.5935 25.096C93.2895 24.744 92.8815 24.472 92.3695 24.28C91.8575 24.072 91.2575 23.968 90.5695 23.968C89.3535 23.968 88.3535 24.312 87.5695 25C86.8015 25.672 86.2575 26.784 85.9375 28.336C85.6175 29.824 85.6495 30.92 86.0335 31.624C86.4175 32.312 87.2975 32.656 88.6735 32.656ZM101.404 34.24C99.8038 34.24 98.6438 33.8 97.9238 32.92C97.2198 32.04 97.0678 30.616 97.4678 28.648C97.7558 27.272 98.2278 26.12 98.8838 25.192C99.5398 24.264 100.324 23.568 101.236 23.104C102.148 22.624 103.116 22.384 104.14 22.384C104.876 22.384 105.508 22.472 106.036 22.648C106.564 22.824 107.06 23.096 107.524 23.464L107.692 22.624H109.66L107.26 34H105.58L105.676 32.8C105.036 33.296 104.372 33.664 103.684 33.904C103.012 34.128 102.252 34.24 101.404 34.24ZM102.244 32.656C102.9 32.656 103.532 32.544 104.14 32.32C104.748 32.096 105.324 31.752 105.868 31.288L107.164 25.096C106.86 24.744 106.484 24.472 106.036 24.28C105.588 24.072 105.02 23.968 104.332 23.968C103.004 23.968 101.932 24.36 101.116 25.144C100.316 25.928 99.7558 27.096 99.4358 28.648C99.1318 30.136 99.1718 31.176 99.5558 31.768C99.9558 32.36 100.852 32.656 102.244 32.656ZM113.964 34.24C113.292 34.24 112.62 34.184 111.948 34.072C111.292 33.976 110.748 33.856 110.316 33.712L110.676 31.984C111.732 32.368 112.86 32.56 114.06 32.56C115.068 32.56 115.812 32.456 116.292 32.248C116.772 32.024 117.076 31.616 117.204 31.024C117.3 30.592 117.252 30.264 117.06 30.04C116.868 29.816 116.556 29.616 116.124 29.44C115.692 29.264 115.132 29.056 114.444 28.816C113.836 28.592 113.3 28.352 112.836 28.096C112.388 27.824 112.06 27.488 111.852 27.088C111.66 26.688 111.636 26.16 111.78 25.504C112.004 24.496 112.484 23.728 113.22 23.2C113.972 22.656 115.196 22.384 116.892 22.384C117.5 22.384 118.076 22.432 118.62 22.528C119.164 22.608 119.628 22.712 120.012 22.84L119.652 24.568C118.724 24.232 117.788 24.064 116.844 24.064C115.9 24.064 115.18 24.168 114.684 24.376C114.188 24.568 113.876 24.936 113.748 25.48C113.668 25.848 113.7 26.144 113.844 26.368C114.004 26.576 114.276 26.76 114.66 26.92C115.06 27.064 115.572 27.248 116.196 27.472C117.428 27.872 118.284 28.32 118.764 28.816C119.244 29.296 119.38 30.024 119.172 31C118.932 32.12 118.42 32.944 117.636 33.472C116.852 33.984 115.628 34.24 113.964 34.24ZM125.158 34.24C124.102 34.24 123.342 33.944 122.878 33.352C122.414 32.744 122.294 31.904 122.518 30.832L123.91 24.184H122.182L122.518 22.624H124.246L124.846 19.816L126.934 19.216L126.214 22.624H129.358L128.902 24.184H125.878L124.486 30.736C124.342 31.424 124.374 31.92 124.582 32.224C124.806 32.512 125.27 32.656 125.974 32.656C126.198 32.656 126.454 32.64 126.742 32.608C127.03 32.56 127.318 32.496 127.606 32.416L127.27 33.904C126.63 34.128 125.926 34.24 125.158 34.24ZM129.563 34L131.963 22.624H133.739L133.571 24.064C134.227 23.696 134.963 23.36 135.779 23.056C136.595 22.752 137.387 22.528 138.155 22.384L137.843 23.92C137.363 24.016 136.843 24.152 136.283 24.328C135.723 24.488 135.179 24.672 134.651 24.88C134.139 25.088 133.699 25.304 133.331 25.528L131.531 34H129.563ZM142.934 34.24C140.966 34.24 139.566 33.752 138.734 32.776C137.902 31.8 137.702 30.296 138.134 28.264C138.534 26.44 139.262 25.008 140.318 23.968C141.39 22.912 142.894 22.384 144.83 22.384C145.95 22.384 146.83 22.592 147.47 23.008C148.126 23.408 148.558 23.968 148.766 24.688C148.974 25.392 148.982 26.192 148.79 27.088L148.334 29.224H139.91C139.798 30.088 139.822 30.768 139.982 31.264C140.158 31.76 140.534 32.12 141.11 32.344C141.702 32.552 142.55 32.656 143.654 32.656C144.822 32.656 145.942 32.456 147.014 32.056L146.678 33.592C146.134 33.8 145.542 33.96 144.902 34.072C144.262 34.184 143.606 34.24 142.934 34.24ZM140.198 27.808H146.87L147.086 26.872C147.278 25.944 147.206 25.232 146.87 24.736C146.534 24.224 145.758 23.968 144.542 23.968C143.246 23.968 142.262 24.288 141.59 24.928C140.934 25.568 140.47 26.528 140.198 27.808ZM151.098 28.336L151.41 26.776H160.458L160.146 28.336H151.098ZM165.152 34.24C164.48 34.24 163.808 34.184 163.136 34.072C162.48 33.976 161.936 33.856 161.504 33.712L161.864 31.984C162.92 32.368 164.048 32.56 165.248 32.56C166.256 32.56 167 32.456 167.48 32.248C167.96 32.024 168.264 31.616 168.392 31.024C168.488 30.592 168.44 30.264 168.248 30.04C168.056 29.816 167.744 29.616 167.312 29.44C166.88 29.264 166.32 29.056 165.632 28.816C165.024 28.592 164.488 28.352 164.024 28.096C163.576 27.824 163.248 27.488 163.04 27.088C162.848 26.688 162.824 26.16 162.968 25.504C163.192 24.496 163.672 23.728 164.408 23.2C165.16 22.656 166.384 22.384 168.08 22.384C168.688 22.384 169.264 22.432 169.808 22.528C170.352 22.608 170.816 22.712 171.2 22.84L170.84 24.568C169.912 24.232 168.976 24.064 168.032 24.064C167.088 24.064 166.368 24.168 165.872 24.376C165.376 24.568 165.064 24.936 164.936 25.48C164.856 25.848 164.888 26.144 165.032 26.368C165.192 26.576 165.464 26.76 165.848 26.92C166.248 27.064 166.76 27.248 167.384 27.472C168.616 27.872 169.472 28.32 169.952 28.816C170.432 29.296 170.568 30.024 170.36 31C170.12 32.12 169.608 32.944 168.824 33.472C168.04 33.984 166.816 34.24 165.152 34.24ZM177.786 34.24C175.818 34.24 174.418 33.752 173.586 32.776C172.754 31.8 172.554 30.296 172.986 28.264C173.386 26.44 174.114 25.008 175.17 23.968C176.242 22.912 177.746 22.384 179.682 22.384C180.802 22.384 181.682 22.592 182.322 23.008C182.978 23.408 183.41 23.968 183.618 24.688C183.826 25.392 183.834 26.192 183.642 27.088L183.186 29.224H174.762C174.65 30.088 174.674 30.768 174.834 31.264C175.01 31.76 175.386 32.12 175.962 32.344C176.554 32.552 177.402 32.656 178.506 32.656C179.674 32.656 180.794 32.456 181.866 32.056L181.53 33.592C180.986 33.8 180.394 33.96 179.754 34.072C179.114 34.184 178.458 34.24 177.786 34.24ZM175.05 27.808H181.722L181.938 26.872C182.13 25.944 182.058 25.232 181.722 24.736C181.386 24.224 180.61 23.968 179.394 23.968C178.098 23.968 177.114 24.288 176.442 24.928C175.786 25.568 175.322 26.528 175.05 27.808ZM185.758 30.304L187.318 22.312L188.11 18.544H190.078L189.286 22.312L187.438 30.304H185.758ZM184.75 34L185.062 32.44H187.222L186.91 34H184.75Z" fill="white"/>
</svg>
