<svg width="1440" height="172" viewBox="0 0 1440 172" fill="none" xmlns="http://www.w3.org/2000/svg">
<path fill-rule="evenodd" clip-rule="evenodd" d="M1440 153.306L1400.4 136.272C1359.6 119.238 1280.4 85.1698 1200 93.6867C1119.6 102.204 1040.4 153.306 960 149.047C879.6 144.789 800.4 85.1698 720 72.3943C639.6 59.6188 560.4 93.6867 480 123.496C399.6 153.306 320.4 178.856 240 170.34C159.6 161.823 80.3999 119.238 39.5999 97.9452L-5.72205e-05 76.6528V3.49527e-05H39.5999C80.3999 3.49527e-05 159.6 3.49527e-05 240 3.49527e-05C320.4 3.49527e-05 399.6 3.49527e-05 480 3.49527e-05C560.4 3.49527e-05 639.6 3.49527e-05 720 3.49527e-05C800.4 3.49527e-05 879.6 3.49527e-05 960 3.49527e-05C1040.4 3.49527e-05 1119.6 3.49527e-05 1200 3.49527e-05C1280.4 3.49527e-05 1359.6 3.49527e-05 1400.4 3.49527e-05H1440V153.306Z" fill="#0099FF"/>
<path fill-rule="evenodd" clip-rule="evenodd" d="M1440 164.663L1418.4 150.941C1396.8 137.219 1352.4 109.775 1309.2 100.627C1266 91.4793 1221.6 100.627 1178.4 91.4793C1134 82.3313 1090.8 54.8876 1047.6 59.4615C1003.2 64.0355 960 100.627 916.8 96.0532C872.4 91.4793 829.2 45.7396 786 45.7396C741.6 45.7396 731.9 41.1657 687.5 59.4615C644.3 77.7574 617.9 73.1835 573.5 91.4793C530.3 109.775 473.4 169.237 429 164.663C385.8 160.089 306 137.219 261.6 118.923C218.4 100.627 174 118.923 130.8 123.497C87.5999 128.071 43.2 118.923 21.6 114.349L0 109.775V0H21.6C43.2 0 87.5999 0 130.8 0C174 0 218.4 0 261.6 0C306 0 349.2 0 392.4 0C436.8 0 480 0 523.2 0C567.6 0 610.8 0 654 0C698.4 0 741.6 0 786 0C829.2 0 872.4 0 916.8 0C960 0 1003.2 0 1047.6 0C1090.8 0 1134 0 1178.4 0C1221.6 0 1266 0 1309.2 0C1352.4 0 1396.8 0 1418.4 0H1440V164.663Z" fill="#0038FF"/>
</svg>
