<svg width="1440" height="172" viewBox="0 0 1440 172" fill="none" xmlns="http://www.w3.org/2000/svg">
<path fill-rule="evenodd" clip-rule="evenodd" d="M0 18.6945L39.6 35.7284C80.4 52.7624 159.6 86.8303 240 78.3133C320.4 69.7963 399.6 18.6945 480 22.953C560.4 27.2115 639.6 86.8303 720 99.6057C800.4 112.381 879.6 78.3133 960 48.5039C1040.4 18.6945 1119.6 -6.85644 1200 1.66053C1280.4 10.1775 1359.6 52.7624 1400.4 74.0548L1440 95.3472V172H1400.4C1359.6 172 1280.4 172 1200 172C1119.6 172 1040.4 172 960 172C879.6 172 800.4 172 720 172C639.6 172 560.4 172 480 172C399.6 172 320.4 172 240 172C159.6 172 80.4 172 39.6 172H0V18.6945Z" fill="#0099FF"/>
<path fill-rule="evenodd" clip-rule="evenodd" d="M0 7.33734L21.6 21.0592C43.2 34.7811 87.6 62.2249 130.8 71.3728C174 80.5208 218.4 71.3728 261.6 80.5208C306 89.6687 349.2 117.112 392.4 112.539C436.8 107.965 480 71.3728 523.2 75.9468C567.6 80.5208 610.8 126.26 654 126.26C698.4 126.26 708.1 130.834 752.5 112.539C795.7 94.2427 822.1 98.8166 866.5 80.5207C909.7 62.2249 966.6 2.76337 1011 7.33733C1054.2 11.9113 1134 34.7811 1178.4 53.077C1221.6 71.3728 1266 53.077 1309.2 48.503C1352.4 43.9291 1396.8 53.077 1418.4 57.6509L1440 62.2249V172H1418.4C1396.8 172 1352.4 172 1309.2 172C1266 172 1221.6 172 1178.4 172C1134 172 1090.8 172 1047.6 172C1003.2 172 960 172 916.8 172C872.4 172 829.2 172 786 172C741.6 172 698.4 172 654 172C610.8 172 567.6 172 523.2 172C480 172 436.8 172 392.4 172C349.2 172 306 172 261.6 172C218.4 172 174 172 130.8 172C87.6 172 43.2 172 21.6 172H0V7.33734Z" fill="#0038FF"/>
</svg>
