<svg width="1440" height="273" viewBox="0 0 1440 273" fill="none" xmlns="http://www.w3.org/2000/svg">
<path fill-rule="evenodd" clip-rule="evenodd" d="M0 175.518L48.3667 162.15C96.7333 148.783 193.467 122.047 290.2 88.627C386.933 55.2073 483.667 15.1037 580.4 21.7876C677.133 28.4716 773.867 81.9431 870.6 135.415C967.333 188.886 1064.07 242.358 1160.8 262.41C1257.53 282.461 1354.27 269.094 1402.63 262.41L1451 255.726V-25H1402.63C1354.27 -25 1257.53 -25 1160.8 -25C1064.07 -25 967.333 -25 870.6 -25C773.867 -25 677.133 -25 580.4 -25C483.667 -25 386.933 -25 290.2 -25C193.467 -25 96.7333 -25 48.3667 -25H0V175.518Z" fill="#0099FF"/>
<path fill-rule="evenodd" clip-rule="evenodd" d="M0 32.5714L62.625 48.8571C125.25 65.1429 250.5 97.7143 375.75 105.857C501 114 626.25 97.7143 751.5 89.5714C876.75 81.4286 1002 81.4286 1127.25 86.8571C1252.5 92.2857 1377.75 103.143 1440.38 108.571L1503 114V0H1440.38C1377.75 0 1252.5 0 1127.25 0C1002 0 876.75 0 751.5 0C626.25 0 501 0 375.75 0C250.5 0 125.25 0 62.625 0H0V32.5714Z" fill="#0038FF"/>
</svg>
