<svg width="414" height="307" viewBox="0 0 414 307" fill="none" xmlns="http://www.w3.org/2000/svg">
<path fill-rule="evenodd" clip-rule="evenodd" d="M-69 209.518L-46.3 196.15C-23.6 182.783 21.8 156.047 67.2 122.627C112.6 89.2073 158 49.1037 203.4 55.7876C248.8 62.4715 294.2 115.943 339.6 169.415C385 222.886 430.4 276.358 475.8 296.41C521.2 316.461 566.6 303.094 589.3 296.41L612 289.726V9H589.3C566.6 9 521.2 9 475.8 9C430.4 9 385 9 339.6 9C294.2 9 248.8 9 203.4 9C158 9 112.6 9 67.2 9C21.8 9 -23.6 9 -46.3 9H-69V209.518Z" fill="#0099FF"/>
<path fill-rule="evenodd" clip-rule="evenodd" d="M0 32.5714L17.25 48.8571C34.5 65.1429 69 97.7143 103.5 105.857C138 114 172.5 97.7143 207 89.5714C241.5 81.4286 276 81.4286 310.5 86.8571C345 92.2857 379.5 103.143 396.75 108.571L414 114V0H396.75C379.5 0 345 0 310.5 0C276 0 241.5 0 207 0C172.5 0 138 0 103.5 0C69 0 34.5 0 17.25 0H0V32.5714Z" fill="#0038FF"/>
</svg>
