<svg width="414" height="298" viewBox="0 0 414 298" fill="none" xmlns="http://www.w3.org/2000/svg">
<path fill-rule="evenodd" clip-rule="evenodd" d="M-69 200.518L-46.3 187.15C-23.6 173.783 21.8 147.047 67.2 113.627C112.6 80.2073 158 40.1037 203.4 46.7876C248.8 53.4715 294.2 106.943 339.6 160.415C385 213.886 430.4 267.358 475.8 287.41C521.2 307.461 566.6 294.094 589.3 287.41L612 280.726V0H589.3C566.6 0 521.2 0 475.8 0C430.4 0 385 0 339.6 0C294.2 0 248.8 0 203.4 0C158 0 112.6 0 67.2 0C21.8 0 -23.6 0 -46.3 0H-69V200.518Z" fill="#0099FF"/>
</svg>
