<svg width="414" height="144" viewBox="0 0 414 144" fill="none" xmlns="http://www.w3.org/2000/svg">
<path fill-rule="evenodd" clip-rule="evenodd" d="M-220 0L-189.667 17.1429C-159.333 34.2857 -98.6667 68.5714 -38 68.5714C22.6667 68.5714 83.3333 34.2857 144 37.7143C204.667 41.1429 265.333 82.2857 326 82.2857C386.667 82.2857 447.333 41.1429 477.667 20.5714L508 0V144H477.667C447.333 144 386.667 144 326 144C265.333 144 204.667 144 144 144C83.3333 144 22.6667 144 -38 144C-98.6667 144 -159.333 144 -189.667 144H-220V0Z" fill="#0099FF"/>
</svg>
