<svg width="414" height="136" viewBox="0 0 414 136" fill="none" xmlns="http://www.w3.org/2000/svg">
<path fill-rule="evenodd" clip-rule="evenodd" d="M0 54.4L8.625 40.8C17.25 27.2 34.5 0 51.75 0C69 0 86.25 27.2 103.5 46.24C120.75 65.28 138 76.16 155.25 78.88C172.5 81.6 189.75 76.16 207 78.88C224.25 81.6 241.5 92.48 258.75 81.6C276 70.72 293.25 38.08 310.5 29.92C327.75 21.76 345 38.08 362.25 54.4C379.5 70.72 396.75 87.04 405.375 95.2L414 103.36V136H405.375C396.75 136 379.5 136 362.25 136C345 136 327.75 136 310.5 136C293.25 136 276 136 258.75 136C241.5 136 224.25 136 207 136C189.75 136 172.5 136 155.25 136C138 136 120.75 136 103.5 136C86.25 136 69 136 51.75 136C34.5 136 17.25 136 8.625 136H0V54.4Z" fill="#0038FF"/>
</svg>
